HIERARCHY
ROOT Hips
{
    OFFSET 0.000000 0.000000 0.000000
    CHANNELS 6 Xposition Yposition Zposition Zrotation Xrotation Yrotation
    JOINT Spine
    {
        OFFSET -0.000000 14.517291 0.000000
        CHANNELS 3 Zrotation Xrotation Yrotation
        JOINT Spine1
        {
            OFFSET -0.000000 37.558300 0.000000
            CHANNELS 3 Zrotation Xrotation Yrotation
            JOINT Neck
            {
                OFFSET -0.000000 37.404057 3.400369
                CHANNELS 3 Zrotation Xrotation Yrotation
                JOINT Head
                {
                    OFFSET -0.000000 24.785618 -3.540803
                    CHANNELS 3 Zrotation Xrotation Yrotation
                    End Site
                    {
                        OFFSET -0.000000 35.408028 0.000000
                    }
                }
            }
            JOINT LeftShoulder
            {
                OFFSET 6.992933 33.973492 -0.192664
                CHANNELS 3 Zrotation Xrotation Yrotation
                JOINT LeftArm
                {
                    OFFSET 21.527611 0.000000 0.000000
                    CHANNELS 3 Zrotation Xrotation Yrotation
                    JOINT LeftForeArm
                    {
                        OFFSET 56.353916 0.000000 0.000000
                        CHANNELS 3 Zrotation Xrotation Yrotation
                        JOINT LeftHand
                        {
                            OFFSET 47.774071 0.000000 0.000000
                            CHANNELS 3 Zrotation Xrotation Yrotation
                            End Site
                            {
                                OFFSET 26.556021 0.000000 0.000000
                            }
                        }
                    }
                }
            }
            JOINT RightShoulder
            {
                OFFSET -7.065357 33.973492 -0.192664
                CHANNELS 3 Zrotation Xrotation Yrotation
                JOINT RightArm
                {
                    OFFSET -21.527611 0.000000 0.000000
                    CHANNELS 3 Zrotation Xrotation Yrotation
                    JOINT RightForeArm
                    {
                        OFFSET -56.353916 0.000000 0.000000
                        CHANNELS 3 Zrotation Xrotation Yrotation
                        JOINT RightHand
                        {
                            OFFSET -47.774071 0.000000 0.000000
                            CHANNELS 3 Zrotation Xrotation Yrotation
                            End Site
                            {
                                OFFSET -26.556021 0.000000 0.000000
                            }
                        }
                    }
                }
            }
        }
    }
    JOINT LeftUpLeg
    {
        OFFSET 17.704014 0.000000 0.000000
        CHANNELS 3 Zrotation Xrotation Yrotation
        JOINT LeftLeg
        {
            OFFSET -0.000000 -81.181816 0.000000
            CHANNELS 3 Zrotation Xrotation Yrotation
            JOINT LeftFoot
            {
                OFFSET -0.000000 -62.821102 0.000000
                CHANNELS 3 Zrotation Xrotation Yrotation
                JOINT LeftToeBase
                {
                    OFFSET -0.000000 -11.507608 26.556021
                    CHANNELS 3 Zrotation Xrotation Yrotation
                    End Site
                    {
                        OFFSET -0.000000 0.000000 7.081605
                    }
                }
            }
        }
    }
    JOINT RightUpLeg
    {
        OFFSET -17.704014 0.000000 0.000000
        CHANNELS 3 Zrotation Xrotation Yrotation
        JOINT RightLeg
        {
            OFFSET -0.000000 -81.181816 0.000000
            CHANNELS 3 Zrotation Xrotation Yrotation
            JOINT RightFoot
            {
                OFFSET -0.000000 -62.821102 0.000000
                CHANNELS 3 Zrotation Xrotation Yrotation
                JOINT RightToeBase
                {
                    OFFSET -0.000000 -11.507608 26.556021
                    CHANNELS 3 Zrotation Xrotation Yrotation
                    End Site
                    {
                        OFFSET -0.000000 0.000000 7.081605
                    }
                }
            }
        }
    }
}
MOTION
Frames:    6
Frame Time:    0.008333
-20.300400    163.270218    -78.230736    -8.714600    -20.535172    42.625828    1.970680    4.455745    -2.868374    10.373578    8.187065    -1.679603    12.602592    -1.610006    -3.868910    4.026011    -0.795959    -5.488666    19.580515    1.961686    -18.784933    -40.378330    33.015892    25.811323    -16.116579    1.134518    -126.994347    1.452995    -30.871838    -12.870150    9.047678    8.340973    -9.761515    32.376747    11.916942    17.316324    -11.577359    7.000520    35.331310    -24.959286    3.325008    32.457184    23.395748    -1.406982    6.485065    -4.717005    37.428677    -16.672503    8.028576    -22.574139    35.634518    0.000000    0.000000    0.000000    -91.149277    -44.301605    -57.402592    8.707017    15.939429    -9.323686    20.761702    13.703681    -35.989212    0.000000    0.000000    0.000000    
-20.300180    163.273743    -78.213211    -8.709223    -20.540026    42.662437    1.977545    4.440264    -2.886640    10.370449    8.200823    -1.686704    12.577315    -1.664107    -3.849741    4.022142    -0.780865    -5.471675    19.592733    1.995056    -18.796814    -40.267437    33.107212    25.734827    -16.167633    1.286961    -126.977867    1.423916    -30.825279    -12.905087    9.047851    8.316884    -9.774176    32.342720    11.909441    17.313576    -11.551770    7.041180    35.358814    -25.010536    3.335186    32.497921    23.408987    -1.409752    6.481930    -4.722982    37.423809    -16.692770    8.040213    -22.564426    35.627117    0.000000    0.000000    0.000000    -91.178101    -44.296516    -57.352783    8.714911    15.985369    -9.287992    20.727934    13.686314    -35.984409    0.000000    0.000000    0.000000    
-20.294016    163.270599    -78.197952    -8.696576    -20.540380    42.696541    1.983595    4.416032    -2.911618    10.364259    8.221551    -1.696512    12.550797    -1.677486    -3.828285    4.013627    -0.801734    -5.446980    19.591715    2.016013    -18.819998    -40.169556    33.201801    25.679016    -16.208046    1.423138    -126.949745    1.313155    -30.756977    -12.988120    9.026385    8.303335    -9.762040    32.326946    11.880991    17.309706    -11.494096    7.083524    35.340054    -25.016808    3.350903    32.515976    23.401409    -1.408647    6.502604    -4.683679    37.424091    -16.723043    8.037289    -22.575140    35.589329    0.000000    0.000000    0.000000    -91.223412    -44.300880    -57.296234    8.714319    16.045155    -9.260051    20.712778    13.683373    -35.970455    0.000000    0.000000    0.000000    
-20.292597    163.269211    -78.177689    -8.682106    -20.553696    42.722881    1.982665    4.410474    -2.925830    10.363294    8.231715    -1.702205    12.579944    -1.685326    -3.790644    3.948946    -0.827898    -5.422246    19.604208    2.039233    -18.851381    -40.081524    33.314064    25.605976    -16.228941    1.515160    -126.942322    1.206149    -30.703520    -13.054630    9.017024    8.287045    -9.768416    32.304371    11.909263    17.319895    -11.480060    7.084390    35.300686    -24.975128    3.353416    32.525307    23.406906    -1.393555    6.511341    -4.664425    37.421616    -16.728035    8.044937    -22.574759    35.548935    0.000000    0.000000    0.000000    -91.240761    -44.310421    -57.238533    8.718788    16.086164    -9.238573    20.690565    13.676456    -35.925198    0.000000    0.000000    0.000000    
-20.287769    163.268631    -78.159134    -8.669480    -20.568340    42.752106    1.988499    4.400480    -2.948792    10.363091    8.241270    -1.710647    12.577177    -1.681517    -3.755651    3.927656    -0.849471    -5.387343    19.598173    2.061546    -18.871994    -39.995644    33.446926    25.519358    -16.231298    1.564932    -126.943253    1.123342    -30.658417    -13.137834    9.007103    8.286724    -9.766476    32.281303    11.898942    17.332663    -11.452761    7.090358    35.273476    -24.964706    3.348055    32.536972    23.411837    -1.381459    6.492072    -4.655893    37.421772    -16.759239    8.060102    -22.576668    35.564850    0.000000    0.000000    0.000000    -91.233208    -44.302723    -56.966248    8.783951    16.061504    -9.406320    20.665638    13.667632    -35.903595    0.000000    0.000000    0.000000    
-20.286354    163.268570    -78.136276    -8.653225    -20.592997    42.774269    1.987929    4.397027    -2.969095    10.366675    8.261349    -1.719561    12.618386    -1.674905    -3.705610    3.859538    -0.876097    -5.350615    19.598547    2.077063    -18.903240    -39.771194    33.479771    25.355713    -16.320595    1.847223    -126.887672    1.117959    -30.549736    -13.294814    9.000075    8.265777    -9.752438    32.255989    11.916674    17.326069    -11.448903    7.075089    35.257851    -24.947529    3.332246    32.548557    23.420996    -1.359626    6.484794    -4.645148    37.425835    -16.756876    8.062119    -22.582260    35.555511    0.000000    0.000000    0.000000    -91.226242    -44.315819    -56.891457    8.781980    16.099852    -9.389311    20.666903    13.652087    -35.846748    0.000000    0.000000    0.000000    
